<?xml version="1.0" encoding="UTF-8"?>
<svg version="1.1" xmlns="http://www.w3.org/2000/svg" xmlns:xlink="http://www.w3.org/1999/xlink">
<defs>

</defs>
<symbol id="i-code" xmlns="http://www.w3.org/2000/svg" viewBox="0 0 34 32"><path d="M11.018 24.982l-.893.893a.571.571 0 01-.821 0L.983 17.554a.571.571 0 010-.821l8.321-8.321a.571.571 0 01.821 0l.893.893a.571.571 0 010 .821L4 17.144l7.018 7.018a.571.571 0 010 .821zM21.571 5.929L14.91 28.983c-.089.304-.411.482-.696.393l-1.107-.304a.579.579 0 01-.393-.714l6.661-23.054c.089-.304.411-.482.696-.393l1.107.304a.579.579 0 01.393.714zm11.733 11.625l-8.321 8.321a.571.571 0 01-.821 0l-.893-.893a.571.571 0 010-.821l7.018-7.018-7.018-7.018a.571.571 0 010-.821l.893-.893a.571.571 0 01.821 0l8.321 8.321a.571.571 0 010 .821z"/></symbol>
<symbol id="i-external" xmlns="http://www.w3.org/2000/svg" viewBox="0 0 32 32"><path d="M25.143 16.571v5.714A5.145 5.145 0 0120 27.428H5.143A5.145 5.145 0 010 22.285V7.428a5.145 5.145 0 015.143-5.143h12.571c.321 0 .571.25.571.571v1.143c0 .321-.25.571-.571.571H5.143a2.866 2.866 0 00-2.857 2.857v14.857a2.866 2.866 0 002.857 2.857H20a2.866 2.866 0 002.857-2.857V16.57c0-.321.25-.571.571-.571h1.143c.321 0 .571.25.571.571zM32 1.143v9.143c0 .625-.518 1.143-1.143 1.143-.304 0-.589-.125-.804-.339L26.91 7.947 15.267 19.59c-.107.107-.268.179-.411.179s-.304-.071-.411-.179l-2.036-2.036c-.107-.107-.179-.268-.179-.411s.071-.304.179-.411L24.052 5.089l-3.143-3.143a1.137 1.137 0 01-.339-.804c0-.625.518-1.143 1.143-1.143h9.143c.625 0 1.143.518 1.143 1.143z"/></symbol>
<symbol id="i-facebook" xmlns="http://www.w3.org/2000/svg" viewBox="0 0 27 32"><path d="M22.286 2.286a5.145 5.145 0 015.143 5.143v17.143a5.145 5.145 0 01-5.143 5.143h-3.357V19.09h3.554l.536-4.143H18.93v-2.643c0-1.196.321-2 2.054-2l2.179-.018V6.59c-.375-.054-1.679-.161-3.179-.161-3.161 0-5.339 1.929-5.339 5.464v3.054h-3.571v4.143h3.571v10.625h-9.5a5.145 5.145 0 01-5.143-5.143V7.429a5.145 5.145 0 015.143-5.143h17.143z"/></symbol>
<symbol id="i-github" xmlns="http://www.w3.org/2000/svg" viewBox="0 0 27 32"><path d="M13.714 2.286c7.571 0 13.714 6.143 13.714 13.714 0 6.054-3.929 11.196-9.375 13.018-.696.125-.946-.304-.946-.661 0-.446.018-1.929.018-3.768 0-1.286-.429-2.107-.929-2.536 3.054-.339 6.268-1.5 6.268-6.768 0-1.5-.536-2.714-1.411-3.679.143-.357.607-1.75-.143-3.643-1.143-.357-3.768 1.411-3.768 1.411a12.895 12.895 0 00-6.858 0S7.659 7.606 6.516 7.963c-.75 1.893-.286 3.286-.143 3.643-.875.964-1.411 2.179-1.411 3.679 0 5.25 3.196 6.429 6.25 6.768-.393.357-.75.964-.875 1.839-.786.357-2.786.964-3.982-1.143-.75-1.304-2.107-1.411-2.107-1.411-1.339-.018-.089.839-.089.839.893.411 1.518 2 1.518 2 .804 2.446 4.625 1.625 4.625 1.625 0 1.143.018 2.214.018 2.554 0 .357-.25.786-.946.661-5.446-1.821-9.375-6.964-9.375-13.018 0-7.571 6.143-13.714 13.714-13.714zM5.196 21.982c.036-.071-.018-.161-.125-.214-.107-.036-.196-.018-.232.036-.036.071.018.161.125.214.089.054.196.036.232-.036zm.554.607c.071-.054.054-.179-.036-.286-.089-.089-.214-.125-.286-.054-.071.054-.054.179.036.286.089.089.214.125.286.054zm.536.804c.089-.071.089-.214 0-.339-.071-.125-.214-.179-.304-.107-.089.054-.089.196 0 .321s.232.179.304.125zm.75.75c.071-.071.036-.232-.071-.339-.125-.125-.286-.143-.357-.054-.089.071-.054.232.071.339.125.125.286.143.357.054zm1.018.446c.036-.107-.071-.232-.232-.286-.143-.036-.304.018-.339.125s.071.232.232.268c.143.054.304 0 .339-.107zm1.125.09c0-.125-.143-.214-.304-.196-.161 0-.286.089-.286.196 0 .125.125.214.304.196.161 0 .286-.089.286-.196zm1.035-.179c-.018-.107-.161-.179-.321-.161-.161.036-.268.143-.25.268.018.107.161.179.321.143s.268-.143.25-.25z"/></symbol>
<symbol id="i-linkedin" xmlns="http://www.w3.org/2000/svg" viewBox="0 0 27 32"><path d="M4.232 25.25h4.125V12.857H4.232V25.25zM8.625 9.036c-.018-1.214-.893-2.143-2.304-2.143s-2.339.929-2.339 2.143c0 1.179.893 2.143 2.286 2.143h.018c1.446 0 2.339-.964 2.339-2.143zM19.071 25.25h4.125v-7.107c0-3.804-2.036-5.571-4.75-5.571-2.214 0-3.196 1.232-3.732 2.089h.036v-1.804h-4.125s.054 1.161 0 12.393h4.125v-6.929c0-.357.018-.732.125-1 .304-.732.982-1.5 2.125-1.5 1.482 0 2.071 1.125 2.071 2.804v6.625zm8.358-17.821v17.143a5.145 5.145 0 01-5.143 5.143H5.143A5.145 5.145 0 010 24.572V7.429a5.145 5.145 0 015.143-5.143h17.143a5.145 5.145 0 015.143 5.143z"/></symbol>
<symbol id="i-list" xmlns="http://www.w3.org/2000/svg" viewBox="0 0 32 32"><path d="M9.143 22.286v3.429c0 .946-.768 1.714-1.714 1.714H1.715a1.715 1.715 0 01-1.714-1.714v-3.429c0-.946.768-1.714 1.714-1.714h5.714c.946 0 1.714.768 1.714 1.714zm0-9.143v3.429c0 .946-.768 1.714-1.714 1.714H1.715a1.715 1.715 0 01-1.714-1.714v-3.429c0-.946.768-1.714 1.714-1.714h5.714c.946 0 1.714.768 1.714 1.714zM32 22.286v3.429c0 .946-.768 1.714-1.714 1.714H13.143a1.715 1.715 0 01-1.714-1.714v-3.429c0-.946.768-1.714 1.714-1.714h17.143c.946 0 1.714.768 1.714 1.714zM9.143 4v3.429c0 .946-.768 1.714-1.714 1.714H1.715A1.715 1.715 0 01.001 7.429V4c0-.946.768-1.714 1.714-1.714h5.714c.946 0 1.714.768 1.714 1.714zM32 13.143v3.429c0 .946-.768 1.714-1.714 1.714H13.143a1.715 1.715 0 01-1.714-1.714v-3.429c0-.946.768-1.714 1.714-1.714h17.143c.946 0 1.714.768 1.714 1.714zM32 4v3.429c0 .946-.768 1.714-1.714 1.714H13.143a1.715 1.715 0 01-1.714-1.714V4c0-.946.768-1.714 1.714-1.714h17.143C31.232 2.286 32 3.054 32 4z"/></symbol>
<symbol id="i-loading" xmlns="http://www.w3.org/2000/svg" viewBox="0 0 32 32"><path d="M32 16a15.832 15.832 0 00-4.864-11.137 15.717 15.717 0 00-5.156-3.302A15.512 15.512 0 0015.999.5 15.335 15.335 0 005.216 5.216a15.23 15.23 0 00-3.193 4.994A15.027 15.027 0 001 16a14.92 14.92 0 001.254 5.694A14.84 14.84 0 005.57 26.43a14.708 14.708 0 004.832 3.085A14.534 14.534 0 0016 30.5c1.897-.04 3.78-.455 5.502-1.216a14.346 14.346 0 004.574-3.208 14.213 14.213 0 002.977-4.67c.407-1.046.684-2.137.829-3.244a2 2 0 002.111-2.163H32zm-3.178 5.311c-.733 1.663-1.796 3.169-3.099 4.412s-2.844 2.225-4.508 2.868A13.536 13.536 0 0116 29.5a13.328 13.328 0 01-9.369-4.131 13.246 13.246 0 01-2.76-4.346 13.048 13.048 0 01.231-9.952c.683-1.541 1.672-2.937 2.883-4.088s2.642-2.058 4.184-2.652a12.539 12.539 0 019.568.231c1.48.658 2.82 1.609 3.926 2.774s1.975 2.54 2.543 4.021c.57 1.481.837 3.064.794 4.641h.007a2 2 0 001.777 2.155 13.829 13.829 0 01-.962 3.156z"/></symbol>
<symbol id="i-qiita" xmlns="http://www.w3.org/2000/svg" viewBox="0 0 32 32"><path d="M2.408 12.604c.001 5.706 4.626 10.331 10.332 10.331s10.332-4.626 10.332-10.332c0-5.147-3.764-9.415-8.689-10.202l-.059-.008h-3.169c-4.983.79-8.747 5.055-8.747 10.199v.012-.001zM27.774 12.536v.056c0 3.4-1.107 6.542-2.981 9.084l.03-.042 4.784 4.558v-23.8h-5.805a14.936 14.936 0 013.973 10.141v.001zM12.828 27.719c-4.2 0-7.798-1.563-10.435-4.029v5.917H26.29l-4.842-4.665a14.812 14.812 0 01-8.616 2.777h-.003z"/><path d="M26.289 29.607h3.318v-3.352l-3.318 3.352z"/></symbol>
<symbol id="i-refresh" xmlns="http://www.w3.org/2000/svg" viewBox="0 0 27 32"><path d="M26.982 18.857c0 .036 0 .089-.018.125-1.518 6.321-6.732 10.732-13.321 10.732-3.482 0-6.857-1.375-9.393-3.786l-2.304 2.304c-.214.214-.5.339-.804.339a1.151 1.151 0 01-1.143-1.143v-8c0-.625.518-1.143 1.143-1.143h8c.625 0 1.143.518 1.143 1.143 0 .304-.125.589-.339.804L7.5 22.678a9.129 9.129 0 006.214 2.464 9.116 9.116 0 007.786-4.357c.429-.696.643-1.375.946-2.089.089-.25.268-.411.536-.411h3.429c.321 0 .571.268.571.571zm.447-14.286v8c0 .625-.518 1.143-1.143 1.143h-8a1.151 1.151 0 01-1.143-1.143c0-.304.125-.589.339-.804l2.464-2.464a9.187 9.187 0 00-6.232-2.446 9.116 9.116 0 00-7.786 4.357c-.429.696-.643 1.375-.946 2.089-.089.25-.268.411-.536.411H.892a.575.575 0 01-.571-.571v-.125C1.857 6.679 7.125 2.286 13.714 2.286c3.5 0 6.911 1.393 9.446 3.786l2.321-2.304c.214-.214.5-.339.804-.339.625 0 1.143.518 1.143 1.143z"/></symbol>
<symbol id="i-search" xmlns="http://www.w3.org/2000/svg" viewBox="0 0 30 32"><path d="M20.571 14.857c0-4.411-3.589-8-8-8s-8 3.589-8 8 3.589 8 8 8 8-3.589 8-8zm9.143 14.857A2.302 2.302 0 0127.428 32a2.24 2.24 0 01-1.607-.679l-6.125-6.107a12.544 12.544 0 01-7.125 2.214C5.625 27.428 0 21.803 0 14.857S5.625 2.286 12.571 2.286s12.571 5.625 12.571 12.571c0 2.536-.768 5.036-2.214 7.125l6.125 6.125c.411.411.661 1 .661 1.607z"/></symbol>
<symbol id="i-tags" xmlns="http://www.w3.org/2000/svg" viewBox="0 0 34 32"><path d="M8 8c0-1.268-1.018-2.286-2.286-2.286S3.428 6.732 3.428 8s1.018 2.286 2.286 2.286S8 9.268 8 8zm19.054 10.286c0 .607-.25 1.196-.661 1.607l-8.768 8.786c-.429.411-1.018.661-1.625.661s-1.196-.25-1.607-.661L1.625 15.893C.714 15 0 13.268 0 12V4.571a2.302 2.302 0 012.286-2.286h7.429c1.268 0 3 .714 3.911 1.625l12.768 12.75c.411.429.661 1.018.661 1.625zm6.857 0c0 .607-.25 1.196-.661 1.607l-8.768 8.786a2.375 2.375 0 01-1.625.661c-.929 0-1.393-.429-2-1.054l8.393-8.393c.411-.411.661-1 .661-1.607s-.25-1.196-.661-1.625L16.482 3.911c-.911-.911-2.643-1.625-3.911-1.625h4c1.268 0 3 .714 3.911 1.625l12.768 12.75c.411.429.661 1.018.661 1.625z"/></symbol>
<symbol id="i-terminal" xmlns="http://www.w3.org/2000/svg" viewBox="0 0 30 32"><path d="M10.446 17.554l-8.321 8.321a.571.571 0 01-.821 0l-.893-.893a.571.571 0 010-.821l7.018-7.018-7.018-7.018a.571.571 0 010-.821l.893-.893a.571.571 0 01.821 0l8.321 8.321a.571.571 0 010 .821zm19.268 8.16v1.143c0 .321-.25.571-.571.571H12a.564.564 0 01-.571-.571v-1.143c0-.321.25-.571.571-.571h17.143c.321 0 .571.25.571.571z"/></symbol>
<symbol id="i-thumbs-up" xmlns="http://www.w3.org/2000/svg" viewBox="0 0 29 32"><path d="M4.571 24c0-.625-.518-1.143-1.143-1.143A1.14 1.14 0 002.285 24c0 .643.5 1.143 1.143 1.143.625 0 1.143-.5 1.143-1.143zm2.858-9.143v11.429c0 .625-.518 1.143-1.143 1.143H1.143A1.151 1.151 0 010 26.286V14.857c0-.625.518-1.143 1.143-1.143h5.143c.625 0 1.143.518 1.143 1.143zm21.142 0c0 .946-.375 1.964-.982 2.661.196.571.268 1.107.268 1.357a3.768 3.768 0 01-.768 2.446 3.783 3.783 0 010 2.089c-.179.661-.518 1.25-.964 1.679.107 1.339-.196 2.429-.875 3.232-.768.911-1.946 1.375-3.518 1.393h-2.304c-2.554 0-4.964-.839-6.893-1.5-1.125-.393-2.196-.768-2.821-.786-.607-.018-1.143-.518-1.143-1.143V14.839c0-.589.5-1.089 1.089-1.143.661-.054 2.375-2.179 3.161-3.214.643-.821 1.25-1.589 1.804-2.143.696-.696.893-1.768 1.107-2.804.196-1.054.411-2.161 1.179-2.911.214-.214.5-.339.804-.339 4 0 4 3.196 4 4.571 0 1.464-.518 2.5-1 3.429-.196.393-.375.571-.518 1.143h4.946c1.857 0 3.429 1.571 3.429 3.429z"/></symbol>
<symbol id="i-twitter" xmlns="http://www.w3.org/2000/svg" viewBox="0 0 27 32"><path d="M22.857 10.893c-.679.304-1.393.5-2.161.607a3.79 3.79 0 001.661-2.089 7.465 7.465 0 01-2.393.911 3.721 3.721 0 00-2.732-1.179 3.75 3.75 0 00-3.75 3.75c0 .286.018.589.089.857a10.655 10.655 0 01-7.75-3.929 3.811 3.811 0 00-.518 1.893c0 1.304.607 2.446 1.625 3.125-.625-.018-1.214-.196-1.786-.464v.036c0 1.821 1.375 3.339 3.089 3.679-.321.089-.571.143-.911.143-.232 0-.464-.036-.696-.071a3.773 3.773 0 003.5 2.607 7.553 7.553 0 01-5.554 1.553 10.686 10.686 0 005.75 1.679c6.893 0 10.679-5.714 10.679-10.679 0-.161 0-.321-.018-.482a7.226 7.226 0 001.875-1.946zm4.572-3.464v17.143a5.145 5.145 0 01-5.143 5.143H5.143A5.145 5.145 0 010 24.572V7.429a5.145 5.145 0 015.143-5.143h17.143a5.145 5.145 0 015.143 5.143z"/></symbol>
</svg>