<!-- Generated by IcoMoon.io -->
<svg version="1.1" xmlns="http://www.w3.org/2000/svg" width="32" height="32" viewBox="0 0 32 32">
<title>qiita</title>
<path d="M2.408 12.604c0.001 5.706 4.626 10.331 10.332 10.331s10.332-4.626 10.332-10.332c0-5.147-3.764-9.415-8.689-10.202l-0.059-0.008h-3.169c-4.983 0.79-8.747 5.055-8.747 10.199 0 0.004 0 0.008 0 0.012v-0.001z"></path>
<path d="M27.774 12.536c0 0.017 0 0.037 0 0.056 0 3.4-1.107 6.542-2.981 9.084l0.030-0.042 4.784 4.558v-23.8h-5.805c2.457 2.658 3.966 6.223 3.973 10.141v0.001z"></path>
<path d="M12.828 27.719c-4.2 0-7.798-1.563-10.435-4.029v5.917h23.897l-4.842-4.665c-2.394 1.726-5.384 2.765-8.616 2.777h-0.003z"></path>
<path d="M26.289 29.607h3.318v-3.352l-3.318 3.352z"></path>
</svg>
